{
  "accessors": [
    {
      "bufferView": 2,
      "componentType": 5126,
      "count": 4488,
      "max": [
        13732.4072265625,
        7366.20361328125,
        1000.0006103515625
      ],
      "min": [
        -1000.0003051757812,
        -7366.20361328125,
        -1000.000732421875
      ],
      "type": "VEC3"
    },
    {
      "bufferView": 2,
      "byteOffset": 53856,
      "componentType": 5126,
      "count": 4488,
      "max": [
        1,
        1,
        0.99999397993087769
      ],
      "min": [
        -1,
        -1,
        -0.99999397993087769
      ],
      "type": "VEC3"
    },
    {
      "bufferView": 3,
      "componentType": 5126,
      "count": 4488,
      "max": [
        0.99998956918716431,
        0.99998956918716431,
        0.99999892711639404,
        -1
      ],
      "min": [
        -0.99998950958251953,
        -0.99998956918716431,
        -1,
        -1
      ],
      "type": "VEC4"
    },
    {
      "bufferView": 1,
      "componentType": 5126,
      "count": 4488,
      "max": [
        0.95318925380706787,
        0.99828314781188965
      ],
      "min": [
        0.04681079089641571,
        0.0017167627811431885
      ],
      "type": "VEC2"
    },
    {
      "bufferView": 0,
      "componentType": 5125,
      "count": 24000,
      "max": [
        4487
      ],
      "min": [
        0
      ],
      "type": "SCALAR"
    },
    {
      "bufferView": 4,
      "componentType": 5126,
      "count": 3416,
      "max": [
        160
      ],
      "min": [
        0.041666667908430099
      ],
      "type": "SCALAR"
    },
    {
      "bufferView": 5,
      "componentType": 5126,
      "count": 3416,
      "max": [
        0,
        -6366.19580078125,
        9.0949470177292824e-13
      ],
      "min": [
        0,
        -6366.19580078125,
        -9.0949470177292824e-13
      ],
      "type": "VEC3"
    },
    {
      "bufferView": 4,
      "byteOffset": 13664,
      "componentType": 5126,
      "count": 4799,
      "max": [
        160
      ],
      "min": [
        0.041666667908430099
      ],
      "type": "SCALAR"
    },
    {
      "bufferView": 6,
      "componentType": 5126,
      "count": 4799,
      "max": [
        6.1054948783812721e-17,
        7.5099138861093245e-17,
        1,
        1
      ],
      "min": [
        -6.4953417923550638e-17,
        -7.3217230175641202e-17,
        -0.86599797010421753,
        -0.49933838844299316
      ],
      "type": "VEC4"
    },
    {
      "bufferView": 4,
      "byteOffset": 32860,
      "componentType": 5126,
      "count": 4801,
      "max": [
        160
      ],
      "min": [
        0.033333335071802139
      ],
      "type": "SCALAR"
    },
    {
      "bufferView": 6,
      "byteOffset": 76784,
      "componentType": 5126,
      "count": 4801,
      "max": [
        0.70710676908493042,
        0,
        0,
        1
      ],
      "min": [
        -0.70710676908493042,
        0,
        0,
        0.70710676908493042
      ],
      "type": "VEC4"
    }
  ],
  "animations": [
    {
      "channels": [
        {
          "sampler": 0,
          "target": {
            "node": 6,
            "path": "translation"
          }
        },
        {
          "sampler": 1,
          "target": {
            "node": 6,
            "path": "rotation"
          }
        },
        {
          "sampler": 2,
          "target": {
            "node": 5,
            "path": "rotation"
          }
        }
      ],
      "name": "Take 001",
      "samplers": [
        {
          "input": 5,
          "interpolation": "LINEAR",
          "output": 6
        },
        {
          "input": 7,
          "interpolation": "LINEAR",
          "output": 8
        },
        {
          "input": 9,
          "interpolation": "LINEAR",
          "output": 10
        }
      ]
    }
  ],
  "asset": {
    "extras": {
      "author": "j-conrad (https://sketchfab.com/j-conrad)",
      "license": "CC-BY-4.0 (http://creativecommons.org/licenses/by/4.0/)",
      "source": "https://sketchfab.com/models/8a48afd0bea749a786f6f16a203a93e8",
      "title": "Trippy Tunnel v2"
    },
    "generator": "Sketchfab-4.4.0",
    "version": "2.0"
  },
  "bufferViews": [
    {
      "buffer": 0,
      "byteLength": 96000,
      "byteOffset": 0,
      "name": "floatBufferViews",
      "target": 34963
    },
    {
      "buffer": 0,
      "byteLength": 35904,
      "byteOffset": 96000,
      "byteStride": 8,
      "name": "floatBufferViews",
      "target": 34962
    },
    {
      "buffer": 0,
      "byteLength": 107712,
      "byteOffset": 131904,
      "byteStride": 12,
      "name": "floatBufferViews",
      "target": 34962
    },
    {
      "buffer": 0,
      "byteLength": 71808,
      "byteOffset": 239616,
      "byteStride": 16,
      "name": "floatBufferViews",
      "target": 34962
    },
    {
      "buffer": 0,
      "byteLength": 52064,
      "byteOffset": 311424,
      "name": "floatBufferViews"
    },
    {
      "buffer": 0,
      "byteLength": 40992,
      "byteOffset": 363488,
      "byteStride": 12,
      "name": "floatBufferViews"
    },
    {
      "buffer": 0,
      "byteLength": 153600,
      "byteOffset": 404480,
      "byteStride": 16,
      "name": "floatBufferViews"
    }
  ],
  "buffers": [
    {
      "byteLength": 558080,
      "uri": "scene.bin"
    }
  ],
  "images": [
    {
      "uri": "textures/lambert1_emissive.png"
    }
  ],
  "materials": [
    {
      "doubleSided": false,
      "emissiveFactor": [
        1,
        1,
        1
      ],
      "emissiveTexture": {
        "index": 0,
        "texCoord": 0
      },
      "name": "lambert1",
      "pbrMetallicRoughness": {
        "baseColorFactor": [
          0,
          0,
          0,
          1
        ],
        "metallicFactor": 0,
        "roughnessFactor": 1
      }
    }
  ],
  "meshes": [
    {
      "name": "Straight_lambert1_0",
      "primitives": [
        {
          "attributes": {
            "NORMAL": 1,
            "POSITION": 0,
            "TANGENT": 2,
            "TEXCOORD_0": 3
          },
          "indices": 4,
          "material": 0,
          "mode": 4
        }
      ]
    }
  ],
  "nodes": [
    {
      "children": [
        1
      ],
      "name": "RootNode (gltf orientation matrix)",
      "rotation": [
        -0.70710678118654746,
        -0,
        -0,
        0.70710678118654757
      ]
    },
    {
      "children": [
        2
      ],
      "name": "RootNode (model correction matrix)"
    },
    {
      "children": [
        3
      ],
      "matrix": [
        1,
        0,
        0,
        0,
        0,
        0,
        1,
        0,
        0,
        -1,
        0,
        0,
        0,
        0,
        0,
        1
      ],
      "name": "6525d0406c064b13a36f21722a4bc4ea.fbx"
    },
    {
      "children": [
        4
      ],
      "name": ""
    },
    {
      "children": [
        5
      ],
      "name": "RootNode"
    },
    {
      "children": [
        6
      ],
      "name": "group2",
      "rotation": [
        0.7071068286895752,
        0,
        0,
        0.7071068286895752
      ]
    },
    {
      "children": [
        7,
        9
      ],
      "name": "group1",
      "translation": [
        0,
        -6366.19580078125,
        0
      ]
    },
    {
      "children": [
        8
      ],
      "name": "Straight",
      "rotation": [
        0,
        -0,
        -0.7071068286895752,
        0.7071068286895752
      ],
      "translation": [
        0,
        6366.19580078125,
        0
      ]
    },
    {
      "mesh": 0,
      "name": "Straight_lambert1_0"
    },
    {
      "name": "bend1Handle",
      "rotation": [
        0,
        -0,
        -0.7071068286895752,
        0.7071068286895752
      ],
      "scale": [
        20000,
        20000,
        20000
      ],
      "translation": [
        0,
        6366.19580078125,
        -6.103515625e-05
      ]
    }
  ],
  "samplers": [
    {
      "magFilter": 9729,
      "minFilter": 9987,
      "wrapS": 10497,
      "wrapT": 10497
    }
  ],
  "scene": 0,
  "scenes": [
    {
      "name": "OSG_Scene",
      "nodes": [
        0
      ]
    }
  ],
  "textures": [
    {
      "sampler": 0,
      "source": 0
    }
  ]
}

