{
  "accessors": [
    {
      "bufferView": 1,
      "componentType": 5126,
      "count": 824,
      "max": [
        3.809999942779541,
        17.779510498046875,
        1.1739346518879756e-05
      ],
      "min": [
        -11.430000305175781,
        -17.805940628051758,
        -13.21013355255127
      ],
      "type": "VEC3"
    },
    {
      "bufferView": 1,
      "byteOffset": 9888,
      "componentType": 5126,
      "count": 824,
      "max": [
        0.98519742488861084,
        0.95214110612869263,
        0.96197509765625
      ],
      "min": [
        -0.99999868869781494,
        -0.95237940549850464,
        -0.99996846914291382
      ],
      "type": "VEC3"
    },
    {
      "bufferView": 2,
      "componentType": 5126,
      "count": 824,
      "max": [
        0.32549020648002625,
        0.30196079611778259,
        0.12549020349979401,
        0.19607843458652496
      ],
      "min": [
        0.32549020648002625,
        0.30196079611778259,
        0.12549020349979401,
        0.19607843458652496
      ],
      "type": "VEC4"
    },
    {
      "bufferView": 0,
      "componentType": 5125,
      "count": 1404,
      "max": [
        823
      ],
      "min": [
        28
      ],
      "type": "SCALAR"
    }
  ],
  "asset": {
    "extras": {
      "author": "CodyZar (https://sketchfab.com/CodyZar)",
      "license": "CC-BY-SA-4.0 (http://creativecommons.org/licenses/by-sa/4.0/)",
      "source": "https://sketchfab.com/3d-models/plumbob-27c415e496734f699ff53bdc33d7dec5",
      "title": "Plumbob"
    },
    "generator": "Sketchfab-6.22.0",
    "version": "2.0"
  },
  "bufferViews": [
    {
      "buffer": 0,
      "byteLength": 5616,
      "byteOffset": 0,
      "name": "floatBufferViews",
      "target": 34963
    },
    {
      "buffer": 0,
      "byteLength": 19776,
      "byteOffset": 5616,
      "byteStride": 12,
      "name": "floatBufferViews",
      "target": 34962
    },
    {
      "buffer": 0,
      "byteLength": 13184,
      "byteOffset": 25392,
      "byteStride": 16,
      "name": "floatBufferViews",
      "target": 34962
    }
  ],
  "buffers": [
    {
      "byteLength": 38576,
      "uri": "scene.bin"
    }
  ],
  "materials": [
    {
      "doubleSided": true,
      "emissiveFactor": [
        0,
        0,
        0
      ],
      "name": "Scene_-_Root",
      "pbrMetallicRoughness": {
        "baseColorFactor": [
          0,
          1,
          0.14610665880000001,
          1
        ],
        "metallicFactor": 0,
        "roughnessFactor": 0.59999999999999998
      }
    }
  ],
  "meshes": [
    {
      "primitives": [
        {
          "attributes": {
            "COLOR_0": 2,
            "NORMAL": 1,
            "POSITION": 0
          },
          "indices": 3,
          "material": 0,
          "mode": 4
        }
      ]
    }
  ],
  "nodes": [
    {
      "children": [
        1
      ],
      "name": "RootNode (gltf orientation matrix)",
      "rotation": [
        -0.70710678118654746,
        -0,
        -0,
        0.70710678118654757
      ]
    },
    {
      "children": [
        2
      ],
      "matrix": [
        1,
        0,
        0,
        0,
        0,
        0,
        1,
        0,
        0,
        -1,
        0,
        0,
        0,
        0,
        0,
        1
      ],
      "name": "RootNode (model correction matrix)"
    },
    {
      "children": [
        3
      ],
      "name": "ea4e804919bd44a991ea9d792175ffd6.stl.cleaner"
    },
    {
      "mesh": 0,
      "name": ""
    }
  ],
  "scene": 0,
  "scenes": [
    {
      "name": "OSG_Scene",
      "nodes": [
        0
      ]
    }
  ]
}

